<svg width="50" height="50" viewBox="0 0 50 50" fill="none" xmlns="http://www.w3.org/2000/svg">
<path d="M50 9.81016C48.1602 10.626 46.1832 11.1773 44.1082 11.4254C46.2264 10.1559 47.8527 8.14551 48.6186 5.7502C46.605 6.94509 44.402 7.78697 42.1047 8.23945C40.2334 6.2459 37.5676 5 34.617 5C28.9518 5 24.3586 9.59297 24.3586 15.2578C24.3586 16.0619 24.4494 16.8447 24.6242 17.5957C16.0988 17.1678 8.54023 13.084 3.48066 6.87773C2.59785 8.39277 2.09199 10.1551 2.09199 12.0348C2.09199 15.5937 3.90313 18.7334 6.65547 20.573C5.02646 20.522 3.4333 20.082 2.00898 19.2898C2.0084 19.3328 2.0084 19.3758 2.0084 19.4189C2.0084 24.3891 5.54434 28.5352 10.2369 29.4775C8.72634 29.8884 7.14185 29.9485 5.60449 29.6533C6.90977 33.7287 10.6982 36.6943 15.1869 36.7773C11.6762 39.5285 7.25293 41.1686 2.44707 41.1686C1.61895 41.1686 0.802539 41.1199 0 41.0252C4.53965 43.9357 9.93164 45.634 15.7246 45.634C34.5932 45.634 44.9109 30.0029 44.9109 16.4475C44.9109 16.0025 44.9012 15.5602 44.8813 15.1203C46.8895 13.6685 48.6229 11.8703 50 9.81016Z" fill="#55ACEE"/>
</svg>
