<svg width="50" height="50" viewBox="0 0 50 50" fill="none" xmlns="http://www.w3.org/2000/svg">
<path d="M16.2499 49.4994C20.8039 49.4994 24.4999 45.8034 24.4999 41.2495V32.9995H16.2499C11.696 32.9995 8 36.6955 8 41.2495C8 45.8034 11.696 49.4994 16.2499 49.4994Z" fill="#00C779"/>
<path d="M8 24.7495C8 20.1955 11.696 16.4995 16.2499 16.4995H24.4999V32.9994H16.2499C11.696 32.9994 8 29.3034 8 24.7495Z" fill="#9D52FB"/>
<path d="M8.00073 8.24994C8.00073 3.69598 11.6967 0 16.2507 0L24.5006 0V16.4999H16.2507C11.6967 16.4999 8.00073 12.8039 8.00073 8.24994Z" fill="#FD4627"/>
<path d="M24.5002 0L32.7502 0C37.3042 0 41.0001 3.69598 41.0001 8.24994C41.0001 12.8039 37.3042 16.4999 32.7502 16.4999H24.5002V0Z" fill="#FF685C"/>
<path d="M41.0001 24.7495C41.0001 29.3034 37.3042 32.9994 32.7502 32.9994C28.1962 32.9994 24.5002 29.3034 24.5002 24.7495C24.5002 20.1955 28.1962 16.4995 32.7502 16.4995C37.3042 16.4995 41.0001 20.1955 41.0001 24.7495Z" fill="#00B4FB"/>
</svg>
