<svg width="50" height="50" viewBox="0 0 50 50" fill="none" xmlns="http://www.w3.org/2000/svg">
<path d="M7.45825 44.1583H37.1645L35.7458 39.5646C35.9562 39.7479 47.9166 50 47.9166 50V5.15625C47.7749 2.36875 45.3749 0 42.3999 0L7.46867 0.00625C4.49575 0.00625 2.08325 2.37917 2.08325 5.16667V39C2.08325 41.9396 4.49159 44.1583 7.45825 44.1583ZM29.4333 11.8396L29.3645 11.8646L29.3895 11.8396H29.4333ZM13.5353 14.4833C17.3541 11.7042 20.8937 11.8375 20.8937 11.8375L21.1791 12.1187C16.5062 13.2333 14.3874 15.3208 14.3874 15.3208C14.6041 15.275 24.0395 9.83125 35.4728 15.4583C35.4728 15.4583 33.3499 13.5062 28.9645 12.2562L29.352 11.875C29.9583 11.8771 33.1666 11.9896 36.5999 14.5C36.5999 14.5 40.4416 21.0625 40.4416 29.125C40.3145 28.9708 38.0583 32.5958 32.252 32.7208C32.252 32.7208 31.2687 31.6083 30.5687 30.6375C33.9645 29.6625 35.2353 27.7125 35.2353 27.7125C28.6249 31.875 22.8312 31.225 15.8999 28.4125C15.8353 28.4125 15.8062 28.3833 15.7728 28.35V28.3375C15.7395 28.3062 15.7103 28.275 15.6458 28.275H15.5208C15.0958 27.9958 14.8124 27.8583 14.8124 27.8583C14.8124 27.8583 16.0812 29.8083 19.3416 30.7833C18.4853 31.7604 17.6374 32.8708 17.6374 32.8708C11.8333 32.7333 9.71659 29.1083 9.71659 29.1083C9.71659 21.0333 13.5353 14.4833 13.5353 14.4833Z" fill="#5C6BC0"/>
<path d="M29.8081 26.6064C31.2894 26.6064 32.4956 25.3564 32.4956 23.8147C32.4956 22.2834 31.2956 21.0334 29.8081 21.0334V21.0397C28.3331 21.0397 27.1248 22.2855 27.1206 23.8272C27.1206 25.3564 28.3269 26.6064 29.8081 26.6064Z" fill="#5C6BC0"/>
<path d="M20.1875 26.6064C21.6687 26.6064 22.875 25.3564 22.875 23.8147C22.875 22.2834 21.6771 21.0334 20.1958 21.0334L20.1875 21.0397C18.7062 21.0397 17.5 22.2855 17.5 23.8272C17.5 25.3564 18.7062 26.6064 20.1875 26.6064Z" fill="#5C6BC0"/>
</svg>
